<svg xmlns="http://www.w3.org/2000/svg" xmlns:xlink="http://www.w3.org/1999/xlink" fill="#f4d003" height="800px" width="800px" version="1.1" id="Layer_1" viewBox="0 0 512 512" xml:space="preserve" transform="matrix(-1, 0, 0, 1, 0, 0)">
<g>
	<g>
		<path d="M401.067,221.867c-61.167,0-110.933,49.766-110.933,110.933S339.9,443.733,401.067,443.733S512,393.967,512,332.8    S462.234,221.867,401.067,221.867z M401.067,426.667c-51.755,0-93.867-42.112-93.867-93.867c0-51.755,42.112-93.867,93.867-93.867    c51.755,0,93.867,42.112,93.867,93.867C494.933,384.555,452.821,426.667,401.067,426.667z" fill="#f4d003"/>
	</g>
</g>
<g>
	<g>
		<path d="M401.067,281.6c-28.237,0-51.2,22.963-51.2,51.2c0,28.237,22.963,51.2,51.2,51.2c28.237,0,51.2-22.963,51.2-51.2    C452.267,304.563,429.303,281.6,401.067,281.6z M401.067,366.933c-18.825,0-34.133-15.309-34.133-34.133    c0-18.825,15.309-34.133,34.133-34.133c18.825,0,34.133,15.309,34.133,34.133C435.2,351.625,419.891,366.933,401.067,366.933z" fill="#f4d003"/>
	</g>
</g>
<g>
	<g>
		<path d="M93.867,315.733c-18.825,0-34.133,15.309-34.133,34.133S75.042,384,93.867,384C112.691,384,128,368.691,128,349.867    C128,331.042,112.691,315.733,93.867,315.733z M93.867,366.933c-9.412,0-17.067-7.654-17.067-17.067    c0-9.412,7.654-17.067,17.067-17.067c9.412,0,17.067,7.654,17.067,17.067C110.933,359.279,103.279,366.933,93.867,366.933z" fill="#f4d003"/>
	</g>
</g>
<g>
	<g>
		<path d="M460.8,162.133h-32.256l-8.533-42.667h6.656c4.71,0,8.533-3.814,8.533-8.533V76.8c0-4.719-3.823-8.533-8.533-8.533h-179.2    c-23.526,0-42.667,19.14-42.667,42.667c0,4.719,3.823,8.533,8.533,8.533h16.213l-7.322,76.868c-0.128,0-0.23-0.068-0.358-0.068    H128c-32.444,0-57.062,32.452-59.494,63.309C29.047,270.677,0,306.901,0,349.867c0,51.755,42.112,93.867,93.867,93.867    c45.926,0,84.181-33.178,92.237-76.8h80.828c2.543,0,4.949-1.135,6.571-3.089c1.621-1.954,2.287-4.531,1.809-7.031    c-1.493-7.868-2.244-15.949-2.244-24.013c0-70.579,57.421-128,128-128c36.702,0,71.689,15.795,96,43.332    c2.338,2.654,6.101,3.567,9.412,2.33c3.32-1.246,5.513-4.429,5.521-7.979v-29.15C512,185.097,489.037,162.133,460.8,162.133z     M93.867,426.667c-42.342,0-76.8-34.449-76.8-76.8s34.458-76.8,76.8-76.8c42.342,0,76.8,34.449,76.8,76.8    C170.667,392.218,136.209,426.667,93.867,426.667z M256.998,349.867h-69.265c0-51.755-42.112-93.867-93.867-93.867    c-2.62,0-5.205,0.179-7.774,0.393c1.058-6.033,3.217-12.126,6.263-17.766c0.512,0.094,0.973,0.307,1.51,0.307h17.067    c4.71,0,8.533-3.814,8.533-8.533s-3.823-8.533-8.533-8.533h-4.924c6.417-5.222,13.926-8.533,21.99-8.533h92.612l-7.236,75.989    c-0.222,2.389,0.563,4.77,2.185,6.554c1.613,1.775,3.9,2.79,6.306,2.79h38.357C257.562,309.632,256,321.024,256,332.8    C256,338.5,256.333,344.209,256.998,349.867z M401.067,187.733c-62.02,0-114.918,39.194-135.629,94.046    c-0.307-0.034-0.58-0.179-0.905-0.179h-33.28l15.445-162.133h155.904l13.833,69.171    C411.349,188.1,406.229,187.733,401.067,187.733z M418.133,102.4H223.326c3.524-9.933,13.013-17.067,24.141-17.067h170.667V102.4z     M494.933,222.199c-17.493-14.839-38.263-25.165-60.467-30.43l-2.509-12.57H460.8c18.825,0,34.133,15.309,34.133,34.133V222.199z" fill="#f4d003"/>
	</g>
</g>
</svg>